<svg width="64" height="63" viewBox="0 0 64 63" fill="none" xmlns="http://www.w3.org/2000/svg">
<rect width="64" height="63" rx="15" fill="white"/>
<mask id="mask0_109_21" style="mask-type:luminance" maskUnits="userSpaceOnUse" x="11" y="11" width="43" height="42">
<path d="M11 11H53.8037V52.4428H11V11Z" fill="white"/>
</mask>
<g mask="url(#mask0_109_21)">
<path fill-rule="evenodd" clip-rule="evenodd" d="M39.2503 52.434C35.0731 52.434 30.6698 51.3913 26.9646 49.3323C26.5146 49.0843 26.2007 48.6541 26.1107 48.1799H30.2659C31.5457 48.1799 31.5457 46.2329 30.2659 46.2329C27.2565 46.2329 24.2471 46.2329 21.2377 46.2329C19.9579 46.2329 19.9579 44.2859 21.2377 44.2859H27.4804C27.7965 44.242 28.1784 43.8337 28.1784 43.3596C28.1784 42.8152 27.7504 42.3872 27.2126 42.3872H22.0915C20.8118 42.3872 20.8118 40.4401 22.0915 40.4401H27.7065C28.0884 40.4182 28.4704 40.5301 28.8062 40.7804C32.0637 43.1554 35.297 44.6722 39.4084 44.6722C41.8339 44.6722 44.5053 43.9918 45.0453 41.7528H40.2601C38.9803 41.7528 38.9803 39.8058 40.2601 39.8058H45.0453C46.235 39.6477 46.1231 37.8609 44.9092 37.8609C41.6539 37.8609 38.4184 37.8609 35.1631 37.8609C33.8834 37.8609 33.8834 35.9139 35.1631 35.9139C36.2848 35.9139 37.3867 35.9139 38.5084 35.9139C39.7903 35.9139 39.7903 33.9691 38.5084 33.9691C34.1293 33.9691 29.7501 33.9691 25.371 33.9691C24.089 33.9691 24.089 32.0221 25.371 32.0221H32.7156C33.9954 32.0221 33.9954 30.0773 32.7156 30.0773C29.5921 30.0773 26.4707 30.0773 23.3493 30.0773C22.0696 30.0773 22.0696 28.1302 23.3493 28.1302H28.6943C29.974 28.1302 29.974 26.1854 28.6943 26.1854H18.7902C17.5083 26.1854 17.5083 24.2384 18.7902 24.2384H24.8529C25.9088 24.1484 25.9548 22.3155 24.6971 22.3155H23.0354C21.7535 22.3155 21.7535 20.3685 23.0354 20.3685H27.6385C27.9765 20.3246 28.3804 19.9163 28.3804 19.418C28.3804 18.9439 28.0204 18.5356 27.5704 18.4676H22.3154C21.0357 18.4676 21.0357 16.5227 22.3154 16.5227H30.5359C31.7937 16.5227 31.7718 14.6899 30.694 14.5999H25.2129C23.9332 14.5999 23.9332 12.6529 25.2129 12.6529H30.8059C31.2318 12.4487 31.6818 12.2907 32.1537 12.1326C36.3309 10.73 41.8098 11.1602 45.8311 12.5848C47.7408 13.2653 49.5144 14.1916 51.1761 15.3243C51.9619 15.8664 52.1639 16.953 51.6261 17.7454L48.9745 21.6131C48.4586 22.3836 47.4247 22.5877 46.6389 22.1114C43.8314 20.3685 40.89 19.0559 37.6567 19.0559C34.9612 19.0559 32.5356 20.0305 32.5356 22.6777C32.5356 25.1889 34.4432 26.0032 36.8928 26.7495C44.4153 29.0588 53.8036 30.1453 53.8036 39.988C53.8036 48.496 47.1789 52.434 39.2503 52.434ZM36.129 39.7619H37.6787C38.9584 39.7619 38.9584 41.7067 37.6787 41.7067H36.129C34.8712 41.7067 34.8712 39.7619 36.129 39.7619ZM12.0974 16.4328C12.9272 16.4328 14.2969 16.2067 14.2969 17.4052C14.2969 18.6037 12.9272 18.3776 12.0974 18.3776C10.8155 18.3776 10.8155 16.4328 12.0974 16.4328ZM15.9366 16.4328H19.598C20.8777 16.4328 20.8777 18.3776 19.598 18.3776H15.9366C14.6569 18.3776 14.6569 16.4328 15.9366 16.4328ZM28.3804 35.87H30.7598C32.0418 35.87 32.0418 37.8148 30.7598 37.8148H28.3804C27.1007 37.8148 27.1007 35.87 28.3804 35.87ZM21.3716 12.5629H22.8093C24.089 12.5629 24.089 14.5077 22.8093 14.5077H21.3716C20.0918 14.5077 20.0918 12.5629 21.3716 12.5629ZM19.508 28.0622H20.8777C22.1574 28.0622 22.1574 30.0092 20.8777 30.0092H19.508C18.2282 30.0312 18.2282 28.0622 19.508 28.0622ZM12.5452 24.1703H16.2966C17.5763 24.1703 17.5763 26.1174 16.2966 26.1174H12.5452C11.2655 26.1174 11.2655 24.1703 12.5452 24.1703ZM17.5544 44.2859C18.3863 44.2859 19.7779 44.0598 19.7779 45.2605C19.7779 46.459 18.4082 46.2329 17.5544 46.2329C16.2746 46.2329 16.2746 44.2859 17.5544 44.2859Z" fill="#020617"/>
</g>
</svg>
