<svg width="150" height="42" viewBox="0 0 150 42" fill="none" xmlns="http://www.w3.org/2000/svg">
<mask id="mask0_66_25894" style="mask-type:luminance" maskUnits="userSpaceOnUse" x="0" y="0" width="43" height="42">
<path d="M0 0H42.8037V41.4428H0V0Z" fill="white"/>
</mask>
<g mask="url(#mask0_66_25894)">
<path fill-rule="evenodd" clip-rule="evenodd" d="M28.2503 41.434C24.0731 41.434 19.6698 40.3913 15.9646 38.3323C15.5146 38.0843 15.2007 37.6541 15.1107 37.1799H19.2659C20.5457 37.1799 20.5457 35.2329 19.2659 35.2329C16.2565 35.2329 13.2471 35.2329 10.2377 35.2329C8.95794 35.2329 8.95794 33.2859 10.2377 33.2859H16.4804C16.7965 33.242 17.1784 32.8337 17.1784 32.3596C17.1784 31.8152 16.7504 31.3872 16.2126 31.3872H11.0915C9.81182 31.3872 9.81182 29.4401 11.0915 29.4401H16.7065C17.0884 29.4182 17.4704 29.5301 17.8062 29.7804C21.0637 32.1554 24.297 33.6722 28.4084 33.6722C30.8339 33.6722 33.5053 32.9918 34.0453 30.7528H29.2601C27.9803 30.7528 27.9803 28.8058 29.2601 28.8058H34.0453C35.235 28.6477 35.1231 26.8609 33.9092 26.8609C30.6539 26.8609 27.4184 26.8609 24.1631 26.8609C22.8834 26.8609 22.8834 24.9139 24.1631 24.9139C25.2848 24.9139 26.3867 24.9139 27.5084 24.9139C28.7903 24.9139 28.7903 22.9691 27.5084 22.9691C23.1293 22.9691 18.7501 22.9691 14.371 22.9691C13.089 22.9691 13.089 21.0221 14.371 21.0221H21.7156C22.9954 21.0221 22.9954 19.0773 21.7156 19.0773C18.5921 19.0773 15.4707 19.0773 12.3493 19.0773C11.0696 19.0773 11.0696 17.1302 12.3493 17.1302H17.6943C18.974 17.1302 18.974 15.1854 17.6943 15.1854H7.79017C6.50825 15.1854 6.50825 13.2384 7.79017 13.2384H13.8529C14.9088 13.1484 14.9548 11.3155 13.6971 11.3155H12.0354C10.7535 11.3155 10.7535 9.3685 12.0354 9.3685H16.6385C16.9765 9.3246 17.3804 8.91632 17.3804 8.41804C17.3804 7.94391 17.0204 7.53562 16.5704 7.46758H11.3154C10.0357 7.46758 10.0357 5.52275 11.3154 5.52275H19.5359C20.7937 5.52275 20.7718 3.68988 19.694 3.59988H14.2129C12.9332 3.59988 12.9332 1.65286 14.2129 1.65286H19.8059C20.2318 1.44872 20.6818 1.29067 21.1537 1.13263C25.3309 -0.270015 30.8098 0.160217 34.8311 1.58481C36.7408 2.26528 38.5144 3.1916 40.1761 4.32425C40.9619 4.86643 41.1639 5.95298 40.6261 6.7454L37.9745 10.6131C37.4586 11.3836 36.4247 11.5877 35.6389 11.1114C32.8314 9.3685 29.89 8.05585 26.6567 8.05585C23.9612 8.05585 21.5356 9.03046 21.5356 11.6777C21.5356 14.1889 23.4432 15.0032 25.8928 15.7495C33.4153 18.0588 42.8036 19.1453 42.8036 28.988C42.8036 37.496 36.1789 41.434 28.2503 41.434ZM25.129 28.7619H26.6787C27.9584 28.7619 27.9584 30.7067 26.6787 30.7067H25.129C23.8712 30.7067 23.8712 28.7619 25.129 28.7619ZM1.09742 5.43275C1.92716 5.43275 3.29688 5.20666 3.29688 6.40517C3.29688 7.60367 1.92716 7.37758 1.09742 7.37758C-0.184493 7.37758 -0.184493 5.43275 1.09742 5.43275ZM4.93659 5.43275H8.59795C9.87767 5.43275 9.87767 7.37758 8.59795 7.37758H4.93659C3.65687 7.37758 3.65687 5.43275 4.93659 5.43275ZM17.3804 24.87H19.7598C21.0418 24.87 21.0418 26.8148 19.7598 26.8148H17.3804C16.1007 26.8148 16.1007 24.87 17.3804 24.87ZM10.3716 1.56286H11.8093C13.089 1.56286 13.089 3.50769 11.8093 3.50769H10.3716C9.09184 3.50769 9.09184 1.56286 10.3716 1.56286ZM8.50795 17.0622H9.87767C11.1574 17.0622 11.1574 19.0092 9.87767 19.0092H8.50795C7.22823 19.0312 7.22823 17.0622 8.50795 17.0622ZM1.54522 13.1703H5.29658C6.5763 13.1703 6.5763 15.1174 5.29658 15.1174H1.54522C0.265495 15.1174 0.265495 13.1703 1.54522 13.1703ZM6.55435 33.2859C7.38628 33.2859 8.77794 33.0598 8.77794 34.2605C8.77794 35.459 7.40823 35.2329 6.55435 35.2329C5.27463 35.2329 5.27463 33.2859 6.55435 33.2859Z" fill="white"/>
</g>
<path d="M50.4666 26.3605C50.4666 26.5119 50.5632 26.6217 50.7146 26.6217H56.9881C57.1396 26.6217 57.2361 26.5119 57.2361 26.3605V26.0576C57.2361 25.9039 57.3459 25.7942 57.4974 25.7942H57.8025C57.9539 25.7942 58.0637 25.6844 58.0637 25.5329V25.2432C58.0637 25.0786 58.1734 24.9666 58.3381 24.9666H58.6146C58.7793 24.9666 58.8912 24.8569 58.8912 24.6922V21.4391C58.8912 21.2723 58.7793 21.1626 58.6146 21.1626H58.3381C58.1734 21.1626 58.0637 21.0528 58.0637 20.886V20.5984C58.0637 20.4448 57.9539 20.335 57.8025 20.335H57.4974C57.3459 20.335 57.2361 20.2253 57.2361 20.0738V19.7709C57.2361 19.6194 57.1264 19.5075 56.9749 19.5075H54.7404C54.5889 19.5075 54.4792 19.3977 54.4792 19.2463V18.9434C54.4792 18.7919 54.3694 18.6822 54.2179 18.6822H53.7767C53.6253 18.6822 53.5133 18.5702 53.5133 18.4187V15.6354C53.5133 15.4839 53.6253 15.372 53.7767 15.372H54.0797C54.2311 15.372 54.3409 15.2622 54.3409 15.1108V14.8079C54.3409 14.6564 54.4506 14.5445 54.6043 14.5445H54.9072C55.0586 14.5445 55.1684 14.6564 55.1684 14.8079V16.351C55.1684 16.5025 55.2782 16.6122 55.4296 16.6122H55.7347C55.8862 16.6122 55.9959 16.7242 55.9959 16.8756V17.1785C55.9959 17.33 56.1057 17.4397 56.2572 17.4397H58.3534C58.5049 17.4397 58.6146 17.33 58.6146 17.1785V14.8079C58.6146 14.6564 58.5049 14.5445 58.3534 14.5445H57.3613C57.2098 14.5445 57.0979 14.4347 57.0979 14.2832V13.9803C57.0979 13.8289 56.9881 13.7191 56.8366 13.7191H51.709C51.5575 13.7191 51.4456 13.8289 51.4456 13.9803V14.2832C51.4456 14.4347 51.3358 14.5445 51.1844 14.5445H50.8814C50.73 14.5445 50.6202 14.6564 50.6202 14.8079V15.0976C50.6202 15.2622 50.5083 15.372 50.3437 15.372H50.0671C49.9024 15.372 49.7927 15.4839 49.7927 15.6486V18.4056C49.7927 18.5702 49.9024 18.6822 50.0671 18.6822H50.3437C50.5083 18.6822 50.6202 18.7919 50.6202 18.9565V19.2463C50.6202 19.3977 50.73 19.5075 50.8814 19.5075H51.1844C51.3358 19.5075 51.4456 19.6194 51.4456 19.7709V20.0738C51.4456 20.2253 51.5575 20.335 51.709 20.335H54.0797C54.2311 20.335 54.3409 20.4448 54.3409 20.5984V20.9014C54.3409 21.0528 54.4506 21.1626 54.6043 21.1626H54.9072C55.0586 21.1626 55.1684 21.2723 55.1684 21.4238V24.7054C55.1684 24.8569 55.0586 24.9666 54.9072 24.9666H54.4506C54.2992 24.9666 54.1894 25.0786 54.1894 25.23V25.5329C54.1894 25.6844 54.0797 25.7942 53.9282 25.7942H53.6253C53.4738 25.7942 53.3619 25.6844 53.3619 25.5329V23.1623C53.3619 23.0108 53.2521 22.8989 53.1007 22.8989H49.9024C49.751 22.8989 49.6412 23.0108 49.6412 23.1623V25.5329C49.6412 25.6844 49.751 25.7942 49.9024 25.7942H50.2054C50.3568 25.7942 50.4666 25.9039 50.4666 26.0576V26.3605Z" fill="white"/>
<path d="M63.2593 26.3605C63.2593 26.5251 63.3559 26.6217 63.5205 26.6217H66.7187C66.8833 26.6217 66.9799 26.5251 66.9799 26.3605V18.9434C66.9799 18.7765 67.0765 18.6822 67.2433 18.6822H67.5594C67.724 18.6822 67.8206 18.7765 67.8206 18.9434V19.2463C67.8206 19.4109 67.9172 19.5075 68.084 19.5075H68.3869C68.5516 19.5075 68.6482 19.6041 68.6482 19.7709V26.3605C68.6482 26.5251 68.7447 26.6217 68.9116 26.6217H72.1098C72.2744 26.6217 72.371 26.5251 72.371 26.3605V13.9803C72.371 13.8157 72.2744 13.7191 72.1098 13.7191H68.9116C68.7447 13.7191 68.6482 13.8157 68.6482 13.9803V17.5912C68.6482 17.7427 68.7579 17.8546 68.9116 17.8546H69.2145C69.3659 17.8546 69.4757 17.9644 69.4757 18.1158V18.4187C69.4757 18.5702 69.5854 18.6822 69.7369 18.6822H70.042C70.1935 18.6822 70.3032 18.7919 70.3032 18.9434V19.2463C70.3032 19.3977 70.1935 19.5075 70.042 19.5075H69.7369C69.5854 19.5075 69.4757 19.3977 69.4757 19.2463V18.9434C69.4757 18.7919 69.3659 18.6822 69.2145 18.6822H68.9116C68.7579 18.6822 68.6482 18.5702 68.6482 18.4187V18.1158C68.6482 17.9512 68.5516 17.8546 68.3869 17.8546H68.084C67.9172 17.8546 67.8206 17.758 67.8206 17.5912V17.2883C67.8206 17.1237 67.724 17.0271 67.5594 17.0271H67.2565C67.0919 17.0271 66.9953 16.9305 66.9953 16.7659V16.4607C66.9953 16.2961 66.8987 16.1995 66.7319 16.1995H66.4289C66.2775 16.1995 66.1677 16.0898 66.1677 15.9383V15.6354C66.1677 15.4839 66.058 15.372 65.9043 15.372H65.6014C65.4499 15.372 65.3402 15.2622 65.3402 15.1108V14.8079C65.3402 14.6564 65.2304 14.5445 65.079 14.5445H64.7739C64.6224 14.5445 64.5127 14.4347 64.5127 14.2832V13.9803C64.5127 13.8289 64.4029 13.7191 64.2514 13.7191H63.5205C63.3559 13.7191 63.2593 13.8157 63.2593 13.9803V26.3605Z" fill="white"/>
<path d="M76.9464 26.3605C76.9464 26.5119 77.0562 26.6217 77.2076 26.6217H80.4058C80.5573 26.6217 80.667 26.5119 80.667 26.3605V22.8023C80.667 22.6508 80.779 22.5411 80.9304 22.5411H81.2334C81.3848 22.5411 81.4946 22.4313 81.4946 22.2799V21.9769C81.4946 21.8233 81.6043 21.7135 81.7558 21.7135H82.0609C82.2124 21.7135 82.3221 21.8233 82.3221 21.9769V26.3605C82.3221 26.5119 82.4319 26.6217 82.5833 26.6217H85.7815C85.933 26.6217 86.0449 26.5119 86.0449 26.3605V14.8079C86.0449 14.6564 85.933 14.5445 85.7815 14.5445H85.4786C85.3272 14.5445 85.2174 14.4347 85.2174 14.2832V13.9803C85.2174 13.8289 85.1077 13.7191 84.954 13.7191H80.5024C80.351 13.7191 80.2412 13.8289 80.2412 13.9803V14.2832C80.2412 14.4347 80.1293 14.5445 79.9778 14.5445H79.8395C79.688 14.5445 79.5783 14.6564 79.5783 14.8079V15.1108C79.5783 15.2622 79.4685 15.372 79.3171 15.372H79.0142C78.8627 15.372 78.7508 15.4839 78.7508 15.6354V15.9383C78.7508 16.0898 78.641 16.1995 78.4895 16.1995H78.1866C78.0352 16.1995 77.9254 16.3093 77.9254 16.4607V16.7659C77.9254 16.9173 77.8135 17.0271 77.662 17.0271H77.2076C77.0562 17.0271 76.9464 17.1368 76.9464 17.2883V26.3605ZM80.9304 20.9694C80.779 20.9694 80.667 20.8597 80.667 20.7082V15.6354C80.667 15.4839 80.779 15.372 80.9304 15.372H81.2334C81.3848 15.372 81.4946 15.2622 81.4946 15.1108V14.8079C81.4946 14.6564 81.6043 14.5445 81.7558 14.5445H82.0609C82.2124 14.5445 82.3221 14.6564 82.3221 14.8079V19.8807C82.3221 20.0321 82.2124 20.1419 82.0609 20.1419H81.7558C81.6043 20.1419 81.4946 20.2516 81.4946 20.4053V20.7082C81.4946 20.8597 81.3848 20.9694 81.2334 20.9694H80.9304Z" fill="white"/>
<path d="M90.6196 26.3605C90.6196 26.5119 90.7294 26.6217 90.8808 26.6217H94.079C94.2305 26.6217 94.3403 26.5119 94.3403 26.3605V21.7267C94.3403 21.5752 94.4522 21.4655 94.6037 21.4655H95.7341C95.8856 21.4655 95.9953 21.3557 95.9953 21.2043V20.9014C95.9953 20.7499 96.1051 20.6379 96.2565 20.6379H98.6272C98.794 20.6379 98.8906 20.5414 98.8906 20.3767V20.0738C98.8906 19.9224 99.0004 19.8126 99.1518 19.8126H99.4548C99.6062 19.8126 99.7182 19.7007 99.7182 19.5492V15.6354C99.7182 15.4839 99.6062 15.372 99.4548 15.372H99.1518C99.0004 15.372 98.8906 15.2622 98.8906 15.1108V14.8079C98.8906 14.6564 98.7809 14.5445 98.6272 14.5445H98.3243C98.1728 14.5445 98.0631 14.4347 98.0631 14.2832V13.9803C98.0631 13.8289 97.9533 13.7191 97.8019 13.7191H90.8808C90.7294 13.7191 90.6196 13.8289 90.6196 13.9803V26.3605ZM94.3403 14.8079C94.3403 14.641 94.4368 14.5445 94.6037 14.5445H94.9066C95.0712 14.5445 95.1678 14.641 95.1678 14.8079V15.1108C95.1678 15.2754 95.2644 15.372 95.429 15.372H95.7341C95.8988 15.372 95.9953 15.4686 95.9953 15.6354V19.5492C95.9953 19.716 95.8988 19.8126 95.7341 19.8126H95.429C95.2644 19.8126 95.1678 19.907 95.1678 20.0738V20.3767C95.1678 20.5414 95.0712 20.6379 94.9066 20.6379H94.6037C94.4368 20.6379 94.3403 20.5414 94.3403 20.3767V14.8079Z" fill="white"/>
<path d="M107.324 14.8079C107.324 14.641 107.421 14.5445 107.588 14.5445H107.891C108.055 14.5445 108.152 14.641 108.152 14.8079V15.1108C108.152 15.2754 108.248 15.372 108.413 15.372H108.718C108.883 15.372 108.979 15.4686 108.979 15.6354V19.1365C108.979 19.3012 108.883 19.3977 108.718 19.3977H108.413C108.248 19.3977 108.152 19.4943 108.152 19.659V19.9641C108.152 20.1287 108.055 20.2253 107.891 20.2253H107.588C107.421 20.2253 107.324 20.1287 107.324 19.9641V14.8079ZM103.604 26.3605C103.604 26.5119 103.713 26.6217 103.865 26.6217H107.063C107.215 26.6217 107.324 26.5119 107.324 26.3605V21.314C107.324 21.1626 107.436 21.0528 107.588 21.0528H107.891C108.042 21.0528 108.152 21.1626 108.152 21.314V21.6169C108.152 21.7684 108.262 21.8804 108.413 21.8804H108.718C108.87 21.8804 108.979 21.9901 108.979 22.1416V26.3605C108.979 26.5119 109.089 26.6217 109.241 26.6217H112.439C112.59 26.6217 112.702 26.5119 112.702 26.3605V22.1416C112.702 21.9901 112.59 21.8804 112.439 21.8804H112.136C111.984 21.8804 111.875 21.7684 111.875 21.6169V21.314C111.875 21.1626 111.765 21.0528 111.611 21.0528H110.068C109.917 21.0528 109.807 20.9431 109.807 20.7894V20.4865C109.807 20.335 109.917 20.2253 110.068 20.2253H111.611C111.765 20.2253 111.875 20.1155 111.875 19.9641V19.659C111.875 19.5075 111.984 19.3977 112.136 19.3977H112.439C112.59 19.3977 112.702 19.288 112.702 19.1365V15.6354C112.702 15.4839 112.59 15.372 112.439 15.372H112.136C111.984 15.372 111.875 15.2622 111.875 15.1108V14.8079C111.875 14.6564 111.765 14.5445 111.611 14.5445H111.308C111.157 14.5445 111.047 14.4347 111.047 14.2832V13.9803C111.047 13.8289 110.937 13.7191 110.786 13.7191H103.865C103.713 13.7191 103.604 13.8289 103.604 13.9803V26.3605Z" fill="white"/>
<path d="M117.828 26.3604C117.828 26.525 117.924 26.6216 118.089 26.6216H120.185C120.35 26.6216 120.447 26.525 120.447 26.3604C120.447 26.1804 120.543 26.0707 120.708 26.0707C120.888 26.0707 120.997 25.9741 120.997 25.8073V23.7C120.997 23.5332 120.901 23.452 120.736 23.452C120.556 23.452 120.447 23.34 120.447 23.1754C120.447 22.9954 120.35 22.8988 120.185 22.8988H118.089C117.924 22.8988 117.828 22.9822 117.828 23.1468C117.828 23.3268 117.731 23.452 117.567 23.452C117.387 23.452 117.277 23.5332 117.277 23.7V25.8073C117.277 25.9741 117.373 26.0707 117.538 26.0707C117.718 26.0707 117.828 26.1673 117.828 26.3319V26.3604Z" fill="white"/>
<path d="M125.575 26.3605C125.575 26.5251 125.671 26.6217 125.836 26.6217H129.034C129.199 26.6217 129.295 26.5251 129.295 26.3605V18.9434C129.295 18.7765 129.392 18.6822 129.559 18.6822H129.862C130.026 18.6822 130.123 18.7765 130.123 18.9434V19.2463C130.123 19.4109 130.22 19.5075 130.384 19.5075H130.689C130.841 19.5075 130.951 19.6194 130.951 19.7709V20.0738C130.951 20.2253 131.06 20.335 131.212 20.335H131.515C131.681 20.335 131.778 20.2384 131.778 20.0738V19.7709C131.778 19.6041 131.875 19.5075 132.039 19.5075H132.342C132.494 19.5075 132.606 19.3977 132.606 19.2463V18.9434C132.606 18.7919 132.715 18.6822 132.867 18.6822H133.17C133.334 18.6822 133.431 18.7765 133.431 18.9434V26.3605C133.431 26.5251 133.528 26.6217 133.694 26.6217H136.893C137.057 26.6217 137.154 26.5251 137.154 26.3605V13.9803C137.154 13.8157 137.057 13.7191 136.893 13.7191H136.188C136.036 13.7191 135.927 13.8289 135.927 13.9803V14.2832C135.927 14.4347 135.817 14.5445 135.666 14.5445H135.347C135.183 14.5445 135.086 14.641 135.086 14.8079V15.1108C135.086 15.2754 134.989 15.372 134.825 15.372H134.522C134.355 15.372 134.258 15.4686 134.258 15.6354V15.9383C134.258 16.103 134.162 16.1995 133.997 16.1995H133.694C133.528 16.1995 133.431 16.2961 133.431 16.4607V16.7659C133.431 16.9305 133.334 17.0271 133.17 17.0271H132.867C132.702 17.0271 132.606 17.1237 132.606 17.2883V17.5912C132.606 17.758 132.509 17.8546 132.342 17.8546H132.039C131.875 17.8546 131.778 17.9512 131.778 18.1158V18.4187C131.778 18.5856 131.681 18.6822 131.515 18.6822H131.212C131.06 18.6822 130.951 18.5702 130.951 18.4187V18.1158C130.951 17.9644 130.841 17.8546 130.689 17.8546H130.384C130.22 17.8546 130.123 17.758 130.123 17.5912V17.2883C130.123 17.1237 130.026 17.0271 129.862 17.0271H129.559C129.392 17.0271 129.295 16.9305 129.295 16.7659V16.4607C129.295 16.2961 129.199 16.1995 129.034 16.1995H128.731C128.565 16.1995 128.468 16.103 128.468 15.9383V15.6354C128.468 15.4686 128.374 15.372 128.207 15.372H127.904C127.739 15.372 127.643 15.2754 127.643 15.1108V14.8079C127.643 14.641 127.546 14.5445 127.379 14.5445H127.076C126.912 14.5445 126.815 14.4479 126.815 14.2832V13.9803C126.815 13.8157 126.718 13.7191 126.554 13.7191H125.836C125.671 13.7191 125.575 13.8157 125.575 13.9803V26.3605Z" fill="white"/>
<path d="M141.729 26.3605C141.729 26.5251 141.826 26.6217 141.99 26.6217H149.737C149.903 26.6217 150 26.5251 150 26.3605V23.1623C150 22.9954 149.903 22.8989 149.737 22.8989H147.366C147.201 22.8989 147.105 22.9954 147.105 23.1623V23.4652C147.105 23.6298 147.008 23.7264 146.843 23.7264H146.538C146.374 23.7264 146.277 23.823 146.277 23.9876V25.5329C146.277 25.6976 146.181 25.7942 146.016 25.7942H145.713C145.546 25.7942 145.45 25.6976 145.45 25.5329V21.2592C145.45 21.0945 145.546 20.9979 145.713 20.9979H148.387C148.551 20.9979 148.648 20.9014 148.648 20.7345V19.6041C148.648 19.4394 148.551 19.3429 148.387 19.3429H145.713C145.546 19.3429 145.45 19.2463 145.45 19.0817V14.8079C145.45 14.641 145.546 14.5445 145.713 14.5445H146.016C146.181 14.5445 146.277 14.641 146.277 14.8079V16.351C146.277 16.5178 146.374 16.6122 146.538 16.6122H146.843C147.008 16.6122 147.105 16.7088 147.105 16.8756V17.1785C147.105 17.3432 147.201 17.4397 147.366 17.4397H149.737C149.903 17.4397 150 17.3432 150 17.1785V13.9803C150 13.8157 149.903 13.7191 149.737 13.7191H141.99C141.826 13.7191 141.729 13.8157 141.729 13.9803V26.3605Z" fill="white"/>
</svg>
